# xmcd
#
# Track frame offsets:
#	150
#	14571
#	31425
#	45552
#	60959
#	73448
#	90686
#	102765
#	115612
#	129534
#
# Disc length: 2118 seconds
#
# Revision: 2
# Processed by: cddbd v1.5.2PL0 Copyright (c) Steve Scherf et al.
# Submitted via: EZCDDA 4.3.2
#
DISCID=8208440a
DTITLE=Manolo Escobar - Grandes Exitos CD-2
DYEAR=1900
DGENRE=
TTITLE0=Mujeres y vino
TTITLE1=Vanessa
TTITLE2=La Minifalda
TTITLE3=Que bonita eres
TTITLE4=Viva Almeria
TTITLE5=Aquel hijo
TTITLE6=Viva España
TTITLE7=Que guapa estas
TTITLE8=Madrecita Maria del Carmen
TTITLE9=Rumba pa ti
EXTD=
EXTT0=
EXTT1=
EXTT2=
EXTT3=
EXTT4=
EXTT5=
EXTT6=
EXTT7=
EXTT8=
EXTT9=
PLAYORDER=
